<?xml version="1.0"?><svg xmlns="http://www.w3.org/2000/svg" xmlns:xlink="http://www.w3.org/1999/xlink" viewBox="-218.03 -157.21 672.09 672.09" style="overflow: visible; width: 100%; height: 100%; position: absolute; left: 0px; top: 0px; transition: all 350ms ease-in-out 0s; backface-visibility: hidden; opacity: 1; transform: rotate3d(1, 1, 0, 0deg);" width="798.4031936127744px" height="798.4031936127744px"><g transform="translate(0 0)"><g transform="translate(0 0)"><g transform="translate(0 0)"><g transform="translate(118.01439977785107,178.8354224769669)"><path d="M-36.92,-292.76 C-16.54,-313.14 16.54,-313.14 36.92,-292.76  L292.76,-36.92 C313.14,-16.54 313.14,16.54 292.76,36.92  L36.92,292.76 C16.54,313.14 -16.54,313.14 -36.92,292.76  L-292.76,36.92 C-313.14,16.54 -313.14,-16.54 -292.76,-36.92  Z" fill="#84fc37" class=""></path></g></g><g transform="translate(0 0)"><g transform="translate(0 76.92324324324323)"><g transform="translate(0 0)"><g transform="scale(2.24 2.24) translate(-0.48000001907348633 74.0199966430664)"><g transform="translate(0.000,0)" fill="#000000" stroke="#000000" stroke-width="0"><path d="M50.78,0.00L50.78,-8.39L56.93,-8.39L51.07,-25.19L22.60,-25.19L16.89,-8.39L24.51,-8.39L24.51,0.00L0.48,0.00L0.48,-8.39L6.93,-8.39L29.98,-74.02L44.38,-74.02L67.38,-8.39L74.80,-8.39L74.80,0.00Z   M36.71,-66.40L25.39,-33.30L48.24,-33.30Z   " class=""></path></g><g transform="translate(75.290,0)" fill="#000000" stroke="#000000" stroke-width="0"><path d="M6.59,-65.57L6.59,-74.02L30.56,-74.02L30.56,-65.57L24.36,-65.57L24.36,-8.39L24.23,-7.23L23.85,-5.88L23.57,-5.15L22.91,-3.62L22.53,-2.83L22.11,-2.02L21.17,-0.38L20.65,0.46L20.11,1.30L19.04,2.94L18.50,3.75L17.98,4.51L16.88,6.04L15.74,7.60L14.54,9.19L13.29,10.80L12.64,11.62L4.24,10.88L4.81,10.01L5.92,8.28L6.97,6.59L7.99,4.93L8.95,3.29L9.42,2.49L9.91,1.63L10.86,-0.11L11.32,-1.00L11.77,-1.88L12.60,-3.60L12.98,-4.44L13.33,-5.26L13.93,-6.81L14.18,-7.54L14.53,-8.88L14.64,-10.00L14.64,-65.57Z   " class=""></path></g></g></g><g transform="translate(0 201.4335986328125)"><g transform="scale(0.42 0.42) translate(334.4733319091798 69.5)"><g transform="translate(0.000,0)" fill="#000000" stroke="#000000" stroke-width="0"><path d="M21.30,-35.30L22.16,-35.26L24.18,-34.88L25.10,-34.50L25.93,-34.07L27.72,-32.98L29.59,-31.55L30.50,-30.70L31.38,-29.98L32.10,-29.70L32.63,-29.91L34.10,-31.39L34.40,-32.50L34.14,-33.42L32.90,-34.50L32.29,-34.88L30.88,-35.59L29.20,-36.19L27.28,-36.63L25.15,-36.87L24.00,-36.90L22.73,-36.87L20.33,-36.61L18.11,-36.14L16.08,-35.47L14.24,-34.65L12.57,-33.70L11.09,-32.66L9.78,-31.56L9.20,-31.00L8.66,-30.45L7.59,-29.22L6.57,-27.80L5.64,-26.22L4.82,-24.47L4.16,-22.55L3.69,-20.48L3.43,-18.26L3.40,-17.10L3.43,-15.95L3.66,-13.71L4.10,-11.56L4.75,-9.54L5.60,-7.65L6.63,-5.93L7.83,-4.39L8.50,-3.70L9.22,-3.04L10.77,-1.86L12.43,-0.88L14.17,-0.10L15.98,0.49L17.82,0.88L19.68,1.08L20.60,1.10L21.95,1.05L24.46,0.71L26.69,0.08L28.66,-0.74L30.37,-1.71L31.82,-2.73L33.00,-3.75L33.93,-4.68L34.30,-5.10L34.88,-5.96L35.00,-6.60L34.40,-6.70L33.50,-5.91L31.79,-4.64L30.15,-3.75L28.49,-3.17L26.75,-2.85L24.84,-2.71L23.80,-2.70L22.80,-2.74L20.76,-3.02L18.74,-3.59L16.80,-4.43L15.01,-5.54L14.20,-6.20L13.70,-6.64L12.66,-7.71L11.64,-9.07L10.69,-10.75L9.88,-12.77L9.28,-15.16L8.94,-17.95L8.90,-19.50L8.96,-21.17L9.38,-24.20L10.16,-26.82L11.25,-29.05L12.57,-30.92L14.07,-32.42L15.68,-33.60L17.34,-34.45L18.99,-35.00L20.56,-35.27L21.30,-35.30Z   " class=""></path></g><g transform="translate(36.700,0)" fill="#000000" stroke="#000000" stroke-width="0"><path d="M22.30,-36.90L21.04,-36.85L18.62,-36.48L16.37,-35.84L14.36,-35.02L12.64,-34.12L11.25,-33.22L10.70,-32.80L10.04,-32.25L8.77,-31.05L7.58,-29.70L6.50,-28.21L5.55,-26.56L4.74,-24.76L4.11,-22.79L3.66,-20.64L3.43,-18.33L3.40,-17.10L3.44,-15.92L3.76,-13.64L4.37,-11.45L5.25,-9.39L6.38,-7.47L7.73,-5.69L9.27,-4.09L11.00,-2.66L12.87,-1.44L14.87,-0.43L16.96,0.35L19.14,0.89L21.37,1.16L22.50,1.20L23.39,1.17L25.27,0.93L27.21,0.47L29.15,-0.19L31.01,-1.04L32.72,-2.04L33.50,-2.60L34.04,-3.04L35.18,-4.09L36.34,-5.34L37.48,-6.79L38.55,-8.43L39.50,-10.25L40.28,-12.25L40.85,-14.43L41.16,-16.77L41.20,-18.00L41.16,-19.22L40.87,-21.60L40.31,-23.86L39.50,-25.99L38.44,-27.98L37.17,-29.81L35.69,-31.46L34.02,-32.93L32.19,-34.19L30.20,-35.23L28.08,-36.03L25.84,-36.58L23.50,-36.86L22.30,-36.90Z   M20.50,-35.20L21.68,-35.15L23.90,-34.75L25.94,-34.00L27.80,-32.93L29.46,-31.58L30.94,-29.99L32.21,-28.19L33.29,-26.24L34.15,-24.16L34.81,-22.00L35.25,-19.80L35.47,-17.59L35.50,-16.50L35.46,-14.99L35.14,-12.21L34.58,-9.75L33.85,-7.64L33.02,-5.88L32.17,-4.51L31.36,-3.53L31.00,-3.20L30.29,-2.65L28.70,-1.69L26.90,-0.96L24.94,-0.55L23.90,-0.50L23.09,-0.53L21.39,-0.79L19.65,-1.33L17.90,-2.17L16.19,-3.33L14.57,-4.82L13.80,-5.70L13.08,-6.61L11.86,-8.52L10.88,-10.48L10.14,-12.47L9.61,-14.46L9.28,-16.38L9.12,-18.23L9.10,-19.10L9.14,-20.71L9.48,-23.65L10.12,-26.26L11.02,-28.52L12.14,-30.44L13.45,-32.03L14.89,-33.29L16.44,-34.23L18.05,-34.85L19.69,-35.16L20.50,-35.20Z   " class=""></path></g><g transform="translate(81.300,0)" fill="#000000" stroke="#000000" stroke-width="0"><path d="M24.50,-36.80L23.44,-36.77L21.35,-36.58L19.34,-36.20L17.41,-35.65L15.59,-34.96L13.89,-34.14L12.33,-33.20L11.60,-32.70L10.99,-32.23L9.74,-31.13L8.49,-29.84L7.28,-28.35L6.15,-26.65L5.16,-24.75L4.34,-22.63L3.76,-20.30L3.44,-17.76L3.40,-16.40L3.45,-15.05L3.79,-12.51L4.39,-10.19L5.20,-8.12L6.13,-6.34L7.10,-4.87L8.06,-3.73L8.50,-3.30L9.41,-2.54L11.26,-1.28L13.14,-0.32L15.01,0.35L16.85,0.78L18.64,0.98L19.50,1.00L20.44,0.97L22.28,0.70L24.10,0.16L25.94,-0.65L27.84,-1.74L29.84,-3.11L30.90,-3.90L31.30,-3.60L31.32,-2.66L31.19,-0.60L31.10,0.50L31.31,1.00L31.90,1.20L32.71,0.88L34.51,0.27L36.44,-0.29L38.40,-0.78L40.31,-1.21L41.20,-1.40L42.37,-1.72L43.65,-2.71L43.80,-3.20L43.56,-3.63L42.80,-3.60L41.46,-3.23L39.44,-2.70L38.18,-2.43L37.80,-2.40L37.34,-2.70L37.10,-3.30L37.08,-3.78L37.05,-4.95L37.02,-6.38L36.99,-8.05L36.96,-9.96L36.94,-12.10L36.92,-14.45L36.91,-17.01L36.90,-19.76L36.90,-21.20L36.90,-21.72L36.91,-23.00L36.92,-24.55L36.93,-26.35L36.95,-28.37L36.97,-30.57L37.00,-32.94L37.03,-35.43L37.06,-38.02L37.10,-40.67L37.14,-43.37L37.17,-46.06L37.21,-48.74L37.26,-51.35L37.30,-53.89L37.34,-56.30L37.38,-58.58L37.42,-60.67L37.45,-62.56L37.49,-64.22L37.53,-65.60L37.56,-66.69L37.59,-67.45L37.60,-67.70L37.55,-69.09L37.20,-69.50L36.62,-69.31L35.90,-68.90L35.41,-68.68L33.82,-68.08L31.69,-67.42L29.35,-66.82L28.20,-66.60L27.56,-66.38L27.30,-66.00L27.67,-65.56L28.50,-65.20L29.35,-64.92L30.89,-64.10L31.40,-63.60L31.71,-62.86L31.80,-61.90L31.80,-61.22L31.80,-59.56L31.81,-57.55L31.82,-55.29L31.83,-52.84L31.84,-50.30L31.85,-47.74L31.86,-45.24L31.87,-42.88L31.88,-40.75L31.89,-38.92L31.90,-37.47L31.90,-36.49L31.90,-36.20L31.50,-35.70L30.85,-35.89L29.18,-36.27L27.24,-36.58L25.34,-36.77L24.50,-36.80Z   M21.00,-34.80L21.95,-34.76L23.96,-34.41L26.00,-33.70L27.94,-32.60L29.66,-31.11L30.40,-30.20L30.85,-29.44L31.30,-28.00L31.39,-27.34L31.53,-25.59L31.61,-23.41L31.65,-20.94L31.65,-18.36L31.62,-15.81L31.57,-13.45L31.50,-11.44L31.43,-9.92L31.40,-9.40L31.28,-8.05L30.71,-5.88L30.20,-5.10L29.28,-4.31L27.33,-3.11L25.28,-2.37L23.22,-2.04L22.20,-2.00L21.21,-2.04L19.28,-2.39L17.42,-3.08L15.67,-4.11L14.06,-5.46L12.64,-7.12L11.43,-9.09L10.47,-11.37L9.80,-13.93L9.45,-16.77L9.40,-18.30L9.43,-19.69L9.69,-22.29L10.17,-24.64L10.84,-26.73L11.67,-28.58L12.63,-30.18L13.70,-31.53L14.82,-32.64L15.40,-33.10L16.18,-33.57L17.75,-34.33L19.72,-34.74L21.00,-34.80Z   " class=""></path></g><g transform="translate(125.000,0)" fill="#000000" stroke="#000000" stroke-width="0"><path d="M10.80,-53.90L9.73,-53.66L7.99,-51.92L7.70,-50.50L7.93,-49.28L9.47,-47.56L10.60,-47.30L11.52,-47.48L13.44,-49.07L13.80,-50.60L13.63,-51.71L12.15,-53.58Z   " class=""></path><path d="M3.60,-33.30L4.30,-32.60L6.01,-31.66L7.32,-30.17L7.40,-29.40L7.40,-29.16L7.39,-28.09L7.37,-26.38L7.35,-24.17L7.32,-21.61L7.29,-18.85L7.25,-16.04L7.22,-13.33L7.18,-10.87L7.15,-8.81L7.11,-7.30L7.10,-6.80L6.97,-4.93L6.21,-2.63L4.82,-1.58L3.90,-1.30L2.39,-0.85L2.00,-0.40L2.38,0.05L3.20,0.20L3.78,0.19L5.21,0.10L7.21,0.01L8.50,0.00L9.70,0.03L12.51,0.20L14.83,0.37L15.40,0.40L16.50,0.24L17.00,-0.30L16.63,-0.77L15.50,-1.10L14.50,-1.35L13.02,-2.58L12.70,-3.90L12.66,-4.28L12.61,-5.40L12.56,-6.94L12.54,-8.83L12.52,-11.01L12.51,-13.42L12.50,-15.99L12.50,-18.65L12.50,-20.00L12.50,-21.36L12.50,-24.01L12.51,-26.52L12.52,-28.84L12.54,-30.94L12.56,-32.76L12.61,-34.26L12.66,-35.39L12.70,-35.80L12.65,-36.91L12.30,-37.20L11.76,-37.04L10.70,-36.50L9.90,-36.12L7.88,-35.26L5.65,-34.44L4.60,-34.10L3.84,-33.74Z   " class=""></path></g><g transform="translate(144.000,0)" fill="#000000" stroke="#000000" stroke-width="0"><path d="M26.30,-36.90L25.46,-36.89L23.56,-36.71L21.43,-36.17L20.30,-35.70L19.46,-35.32L17.67,-34.34L15.78,-33.13L13.81,-31.74L12.80,-31.00L12.30,-31.30L12.27,-32.14L12.32,-34.11L12.44,-35.99L12.50,-36.70L12.30,-37.40L11.80,-37.50L11.09,-37.08L9.35,-36.20L7.47,-35.38L5.78,-34.73L5.10,-34.50L4.03,-34.02L3.70,-33.70L3.91,-33.21L4.50,-32.80L5.98,-31.89L7.13,-30.10L7.20,-29.30L7.20,-28.33L7.20,-26.34L7.20,-24.31L7.20,-22.23L7.19,-20.13L7.18,-18.00L7.17,-15.87L7.15,-13.74L7.13,-11.63L7.10,-9.54L7.07,-7.49L7.02,-5.48L7.00,-4.50L6.84,-3.30L5.55,-1.91L4.10,-1.50L2.47,-1.04L1.90,-0.50L2.39,0.04L3.70,0.20L4.84,0.17L7.31,0.03L8.40,0.00L9.35,0.02L11.60,0.13L13.85,0.27L15.54,0.38L16.00,0.40L17.38,0.33L18.00,-0.20L17.60,-0.78L16.30,-1.20L15.15,-1.53L13.42,-2.90L13.00,-4.30L12.94,-4.76L12.80,-5.81L12.66,-7.24L12.54,-9.28L12.44,-12.17L12.40,-14.00L12.38,-15.55L12.34,-18.48L12.32,-21.11L12.31,-23.33L12.30,-25.05L12.30,-26.19L12.30,-26.50L12.38,-27.26L12.97,-29.14L13.50,-29.90L14.45,-30.66L16.29,-31.91L18.06,-32.81L19.80,-33.39L21.53,-33.67L22.40,-33.70L23.65,-33.63L25.86,-33.10L27.71,-32.17L28.50,-31.60L29.01,-31.16L29.88,-30.19L30.57,-29.02L31.09,-27.56L31.45,-25.71L31.68,-23.39L31.79,-20.49L31.80,-18.80L31.80,-5.70L31.76,-4.33L31.32,-2.52L30.16,-1.58L29.20,-1.30L27.50,-0.79L27.00,-0.20L27.50,0.25L28.60,0.40L29.45,0.37L31.02,0.20L32.80,0.03L33.90,0.00L35.08,0.03L37.42,0.20L39.30,0.37L39.90,0.40L41.23,0.31L41.80,-0.30L41.36,-0.80L40.10,-1.30L39.20,-1.57L37.99,-2.39L37.38,-4.08L37.15,-7.26L37.10,-9.60L37.10,-10.90L37.08,-13.00L37.05,-14.74L37.02,-16.52L37.00,-18.72L37.00,-20.10L36.97,-21.31L36.84,-23.67L36.62,-25.91L36.29,-27.99L35.82,-29.86L35.22,-31.49L34.45,-32.84L34.00,-33.40L33.53,-33.92L32.19,-35.08L30.29,-36.14L27.79,-36.80L26.30,-36.90Z   " class=""></path></g><g transform="translate(187.400,0)" fill="#000000" stroke="#000000" stroke-width="0"><path d="M7.50,16.20L7.58,14.98L8.16,12.64L9.15,10.50L10.38,8.65L11.68,7.17L12.30,6.60L12.68,6.30L14.38,5.78L16.00,5.60L16.71,5.55L18.34,5.48L20.17,5.44L22.13,5.41L24.14,5.40L26.13,5.40L27.10,5.40L28.58,5.48L31.14,6.06L33.16,7.14L34.66,8.62L35.65,10.42L36.14,12.44L36.20,13.50L36.14,14.69L35.70,16.99L34.91,19.15L33.84,21.09L32.57,22.78L31.20,24.15L30.50,24.70L29.50,25.35L27.45,26.30L25.44,26.85L23.56,27.11L21.91,27.19L21.20,27.20L19.68,27.16L17.19,26.89L15.25,26.36L13.64,25.61L12.16,24.65L11.40,24.10L10.40,23.18L8.89,21.12L7.97,18.97L7.55,17.02L7.50,16.20Z   M18.10,-37.50L17.20,-37.47L15.38,-37.27L13.57,-36.85L11.79,-36.20L10.08,-35.31L8.47,-34.17L7.70,-33.50L6.97,-32.79L5.69,-31.22L4.66,-29.45L3.93,-27.44L3.55,-25.15L3.50,-23.90L3.57,-22.58L4.06,-20.12L4.96,-17.90L6.15,-15.94L7.54,-14.24L9.02,-12.81L10.50,-11.67L11.20,-11.20L11.40,-10.60L10.86,-9.96L9.47,-8.48L7.79,-6.87L5.95,-5.29L4.09,-3.89L3.20,-3.30L2.77,-2.96L2.50,-2.40L2.60,-1.48L3.33,0.28L4.61,1.90L6.25,3.29L8.07,4.41L9.87,5.17L10.70,5.40L10.70,6.30L10.05,7.12L8.53,9.08L6.92,11.18L5.49,13.05L4.47,14.36L4.20,14.70L3.64,15.49L2.67,17.70L2.50,19.10L2.56,20.35L3.06,22.62L4.00,24.60L5.33,26.29L7.00,27.69L8.95,28.80L11.12,29.64L13.47,30.19L15.94,30.47L17.20,30.50L18.28,30.48L20.34,30.29L22.27,29.93L24.08,29.43L25.79,28.81L27.42,28.09L28.20,27.70L29.17,27.17L31.04,25.98L32.80,24.64L34.44,23.16L35.91,21.55L37.21,19.82L38.30,18.00L39.15,16.08L39.75,14.10L40.06,12.04L40.10,11.00L40.07,10.04L39.80,8.13L39.26,6.31L38.45,4.65L37.35,3.21L36.70,2.60L36.00,2.06L34.57,1.15L32.87,0.50L30.62,0.15L29.20,0.10L28.51,0.11L26.77,0.15L24.72,0.21L22.52,0.29L20.37,0.35L18.43,0.39L17.60,0.40L16.09,0.38L13.26,0.15L10.84,-0.40L9.03,-1.38L8.03,-2.90L7.90,-3.90L8.16,-4.91L9.10,-6.30L9.73,-6.98L11.10,-8.39L12.47,-9.63L13.10,-10.10L13.64,-10.32L14.40,-10.40L15.18,-10.30L17.34,-10.05L18.40,-10.00L18.99,-10.02L20.52,-10.21L22.45,-10.74L24.69,-11.76L25.90,-12.50L26.64,-13.07L28.03,-14.43L29.29,-16.05L30.36,-17.91L31.22,-20.00L31.83,-22.30L32.16,-24.79L32.20,-26.10L32.17,-27.56L32.03,-29.73L32.00,-30.40L32.60,-31.00L33.36,-30.99L35.69,-30.90L38.12,-30.81L39.00,-30.80L39.70,-31.24L40.10,-32.50L39.79,-33.93L39.10,-34.60L38.45,-34.59L36.61,-34.54L34.44,-34.46L32.41,-34.41L31.60,-34.40L30.26,-34.42L28.60,-34.65L28.00,-34.90L27.63,-35.09L26.37,-35.68L24.51,-36.39L22.19,-37.03L19.52,-37.44L18.10,-37.50Z   M17.60,-36.20L18.73,-36.14L20.62,-35.65L22.16,-34.73L23.53,-33.45L24.20,-32.70L24.75,-31.98L25.67,-30.40L26.38,-28.68L26.90,-26.82L27.22,-24.84L27.38,-22.77L27.40,-21.70L27.35,-20.68L26.94,-18.62L26.15,-16.62L25.02,-14.79L23.59,-13.25L21.89,-12.11L19.95,-11.48L18.90,-11.40L17.79,-11.46L15.87,-11.89L14.27,-12.65L12.92,-13.65L12.30,-14.20L11.88,-14.68L11.05,-15.97L10.30,-17.60L9.66,-19.48L9.19,-21.53L8.93,-23.64L8.90,-24.70L8.93,-25.66L9.17,-27.68L9.66,-29.71L10.40,-31.62L11.40,-33.24L12.00,-33.90L12.86,-34.59L14.65,-35.61L16.57,-36.13L17.60,-36.20Z   " class=""></path></g></g><g transform="scale(8.421602354944406 0.42) translate(-3.200000047683716 69.5)"><g transform="translate(0.000,0)" fill="#000000" stroke="#000000" stroke-width="0"><path d="M4.50,-21.20L3.97,-20.97L3.60,-20.60L3.25,-19.34L3.20,-18.30L3.38,-17.85L4.00,-17.70L4.36,-17.72L5.94,-17.84L8.32,-18.06L11.11,-18.32L13.91,-18.60L16.31,-18.86L17.92,-19.04L18.30,-19.10L19.10,-19.60L19.59,-21.20L19.70,-22.50L19.30,-23.10L18.74,-23.06L16.86,-22.85L14.29,-22.53L11.41,-22.15L8.61,-21.77L6.28,-21.45L4.80,-21.24L4.50,-21.20Z   " class=""></path></g></g></g></g><g transform="translate(76.25439938049318 0)"><g><g fill="#000000" stroke="none" x="0" y="0" transform="translate(0.7182309582309583, 0.7182309582309583) scale(0.8208353808353809)"><path d="M57,51v1c0,0.553-0.447,1-1,1H44c-0.553,0-1-0.447-1-1v-1H0v2c0,0,0,3,3,3h94c3,0,3-3,3-3v-2H57z" fill-rule="nonzero" fill="#000000" stroke="none" stroke-width="1px" stroke-linecap="butt" stroke-linejoin="miter" stroke-miterlimit="4" stroke-dasharray="none" class=""></path><path d="M85,0H15c-1.658,0-3,1.343-3,3v1v41c0,1.657,1.342,3,3,3h1h68h1c1.656,0,3-1.343,3-3V4V3C88,1.343,86.657,0,85,0z M84,44H16
	V4h68V44z" fill-rule="nonzero" fill="#000000" stroke="none" stroke-width="1px" stroke-linecap="butt" stroke-linejoin="miter" stroke-miterlimit="4" stroke-dasharray="none" class=""></path></g></g></g></g></g></g></svg>